# xmcd
#
# Track frame offsets:
#	150
#	11354
#	29789
#	42234
#	53242
#	65507
#	76068
#	89201
#	101236
#	115101
#	135394
#	150408
#	165789
#	177987
#	193936
#	213545
#	227796
#	244681
#	253758
#	271434
#	290377
#	306006
#
# Disc length: 4241 seconds
#
# Revision: 1
# Processed by: cddbd v1.5.2PL0 Copyright (c) Steve Scherf et al.
# Submitted via: EZCDAudioConverter 7.0.6.1
#
DISCID=33108f16
DTITLE=Various Artist - Back To Peru
DYEAR=2002
DGENRE=
TTITLE0=Termits - Bailemos
TTITLE1=Los York's - Abrazame Baby
TTITLE2=Golden Stars - Tema De Los Golden Stars
TTITLE3=Texao - Stone
TTITLE4=Los Mutables - Pasos En La Luna
TTITLE5=Los Holy's - Holy's Psicodelicos
TTITLE6=Los 007 - No Te Puedo Encontrar
TTITLE7=Pina Y Sus Estrellas - Los Extraños
TTITLE8=Hot Butter's Sound - Pa-Pa-Pa
TTITLE9=Ringers - You Gotta Try
TTITLE10=New Juggler Sound - Glue
TTITLE11=Smog - Wiched Man
TTITLE12=Los Comandos - Eleva Tu Mente
TTITLE13=Laghonia - World Full Of Nuts
TTITLE14=El Polen - Mi Cueva
TTITLE15=El Opio - Una Bruja En El Cuzco
TTITLE16=Telegraph Avenue - Tookie Tookie
TTITLE17=Black Sugar - Funky Man
TTITLE18=Zulu - Candela
TTITLE19=Pax - Exorcismo
TTITLE20=Traffic Sound - Meshkalina
TTITLE21=Los Mirlos - Sonido Amazonico
EXTD=
EXTT0=
EXTT1=
EXTT2=
EXTT3=
EXTT4=
EXTT5=
EXTT6=
EXTT7=
EXTT8=
EXTT9=
EXTT10=
EXTT11=
EXTT12=
EXTT13=
EXTT14=
EXTT15=
EXTT16=
EXTT17=
EXTT18=
EXTT19=
EXTT20=
EXTT21=
PLAYORDER=
